<mxfile host="app.diagrams.net" modified="2024-04-03T10:58:32.007Z" agent="Mozilla/5.0 (X11; Ubuntu; Linux x86_64; rv:124.0) Gecko/20100101 Firefox/124.0" etag="GV9foB71z_vFNBpVmxq2" version="24.2.1" type="google">
  <diagram name="Page-1" id="wFNRLw24JfZHrCjq66cY">
    <mxGraphModel grid="1" page="1" gridSize="10" guides="1" tooltips="1" connect="1" arrows="1" fold="1" pageScale="1" pageWidth="827" pageHeight="1169" math="0" shadow="0">
      <root>
        <mxCell id="0" />
        <mxCell id="1" parent="0" />
        <mxCell id="7TvMmoEhLERxOpC9MgYp-1" value="&lt;div&gt;client&lt;/div&gt;" style="shape=umlActor;verticalLabelPosition=bottom;verticalAlign=top;html=1;outlineConnect=0;" vertex="1" parent="1">
          <mxGeometry x="40" y="260" width="30" height="60" as="geometry" />
        </mxCell>
        <mxCell id="7TvMmoEhLERxOpC9MgYp-3" value="ExpressFood" style="swimlane;whiteSpace=wrap;html=1;" vertex="1" parent="1">
          <mxGeometry x="250" y="80" width="200" height="590" as="geometry" />
        </mxCell>
        <mxCell id="7TvMmoEhLERxOpC9MgYp-4" value="navigation" style="ellipse;whiteSpace=wrap;html=1;" vertex="1" parent="7TvMmoEhLERxOpC9MgYp-3">
          <mxGeometry x="40" y="50" width="120" height="60" as="geometry" />
        </mxCell>
        <mxCell id="7TvMmoEhLERxOpC9MgYp-5" value="choix plat" style="ellipse;whiteSpace=wrap;html=1;" vertex="1" parent="7TvMmoEhLERxOpC9MgYp-3">
          <mxGeometry x="40" y="140" width="120" height="60" as="geometry" />
        </mxCell>
        <mxCell id="7TvMmoEhLERxOpC9MgYp-6" value="choix quantitÃ©" style="ellipse;whiteSpace=wrap;html=1;" vertex="1" parent="7TvMmoEhLERxOpC9MgYp-3">
          <mxGeometry x="40" y="230" width="120" height="60" as="geometry" />
        </mxCell>
        <mxCell id="7TvMmoEhLERxOpC9MgYp-7" value="confirmation" style="ellipse;whiteSpace=wrap;html=1;" vertex="1" parent="7TvMmoEhLERxOpC9MgYp-3">
          <mxGeometry x="40" y="320" width="120" height="60" as="geometry" />
        </mxCell>
        <mxCell id="7TvMmoEhLERxOpC9MgYp-8" value="" style="endArrow=classic;html=1;rounded=0;exitX=0.5;exitY=1;exitDx=0;exitDy=0;entryX=0.5;entryY=0;entryDx=0;entryDy=0;" edge="1" parent="7TvMmoEhLERxOpC9MgYp-3" source="7TvMmoEhLERxOpC9MgYp-4" target="7TvMmoEhLERxOpC9MgYp-5">
          <mxGeometry width="50" height="50" relative="1" as="geometry">
            <mxPoint x="140" y="330" as="sourcePoint" />
            <mxPoint x="190" y="280" as="targetPoint" />
          </mxGeometry>
        </mxCell>
        <mxCell id="7TvMmoEhLERxOpC9MgYp-9" value="" style="endArrow=classic;html=1;rounded=0;exitX=0.5;exitY=1;exitDx=0;exitDy=0;entryX=0.5;entryY=0;entryDx=0;entryDy=0;" edge="1" parent="7TvMmoEhLERxOpC9MgYp-3">
          <mxGeometry width="50" height="50" relative="1" as="geometry">
            <mxPoint x="99.8" y="200" as="sourcePoint" />
            <mxPoint x="99.8" y="230" as="targetPoint" />
          </mxGeometry>
        </mxCell>
        <mxCell id="7TvMmoEhLERxOpC9MgYp-10" value="" style="endArrow=classic;html=1;rounded=0;exitX=0.5;exitY=1;exitDx=0;exitDy=0;entryX=0.5;entryY=0;entryDx=0;entryDy=0;" edge="1" parent="7TvMmoEhLERxOpC9MgYp-3">
          <mxGeometry width="50" height="50" relative="1" as="geometry">
            <mxPoint x="99.8" y="290" as="sourcePoint" />
            <mxPoint x="99.8" y="320" as="targetPoint" />
          </mxGeometry>
        </mxCell>
        <mxCell id="7TvMmoEhLERxOpC9MgYp-15" value="panier" style="ellipse;whiteSpace=wrap;html=1;" vertex="1" parent="7TvMmoEhLERxOpC9MgYp-3">
          <mxGeometry x="40" y="410" width="120" height="60" as="geometry" />
        </mxCell>
        <mxCell id="7TvMmoEhLERxOpC9MgYp-16" value="" style="endArrow=classic;html=1;rounded=0;exitX=0.5;exitY=1;exitDx=0;exitDy=0;entryX=0.5;entryY=0;entryDx=0;entryDy=0;" edge="1" parent="7TvMmoEhLERxOpC9MgYp-3">
          <mxGeometry width="50" height="50" relative="1" as="geometry">
            <mxPoint x="99.8" y="380" as="sourcePoint" />
            <mxPoint x="99.8" y="410" as="targetPoint" />
          </mxGeometry>
        </mxCell>
        <mxCell id="7TvMmoEhLERxOpC9MgYp-17" value="" style="endArrow=classic;html=1;rounded=0;" edge="1" parent="1" source="7TvMmoEhLERxOpC9MgYp-15" target="7TvMmoEhLERxOpC9MgYp-1">
          <mxGeometry width="50" height="50" relative="1" as="geometry">
            <mxPoint x="180" y="200" as="sourcePoint" />
            <mxPoint x="230" y="150" as="targetPoint" />
          </mxGeometry>
        </mxCell>
        <mxCell id="7TvMmoEhLERxOpC9MgYp-18" value="" style="endArrow=classic;html=1;rounded=0;" edge="1" parent="1" source="7TvMmoEhLERxOpC9MgYp-1" target="7TvMmoEhLERxOpC9MgYp-4">
          <mxGeometry width="50" height="50" relative="1" as="geometry">
            <mxPoint x="190" y="210" as="sourcePoint" />
            <mxPoint x="240" y="160" as="targetPoint" />
          </mxGeometry>
        </mxCell>
        <mxCell id="7TvMmoEhLERxOpC9MgYp-19" value="" style="endArrow=classic;html=1;rounded=0;" edge="1" parent="1" source="7TvMmoEhLERxOpC9MgYp-1" target="7TvMmoEhLERxOpC9MgYp-5">
          <mxGeometry width="50" height="50" relative="1" as="geometry">
            <mxPoint x="200" y="220" as="sourcePoint" />
            <mxPoint x="250" y="170" as="targetPoint" />
          </mxGeometry>
        </mxCell>
        <mxCell id="7TvMmoEhLERxOpC9MgYp-20" value="" style="endArrow=classic;html=1;rounded=0;" edge="1" parent="1" source="7TvMmoEhLERxOpC9MgYp-1" target="7TvMmoEhLERxOpC9MgYp-6">
          <mxGeometry width="50" height="50" relative="1" as="geometry">
            <mxPoint x="210" y="230" as="sourcePoint" />
            <mxPoint x="260" y="180" as="targetPoint" />
          </mxGeometry>
        </mxCell>
        <mxCell id="7TvMmoEhLERxOpC9MgYp-21" value="" style="endArrow=classic;html=1;rounded=0;" edge="1" parent="1" source="7TvMmoEhLERxOpC9MgYp-1" target="7TvMmoEhLERxOpC9MgYp-7">
          <mxGeometry width="50" height="50" relative="1" as="geometry">
            <mxPoint x="220" y="240" as="sourcePoint" />
            <mxPoint x="270" y="190" as="targetPoint" />
          </mxGeometry>
        </mxCell>
      </root>
    </mxGraphModel>
  </diagram>
</mxfile>
